# xmcd
#
# Track frame offsets:
#	150
#	5920
#	10954
#	20367
#	29582
#	32845
#	41184
#	46286
#	57697
#	64118
#	75605
#	88352
#	99446
#	110248
#	122783
#	132511
#	142872
#	151658
#	162973
#	172771
#	181463
#	191009
#	199595
#	227473
#	250394
#	260827
#	268271
#	276432
#	289318
#	302665
#	315477
#	319995
#	336341
#	343083
#
# Disc length: 4770 seconds
#
# Revision: 1
# Processed by: cddbd v1.5.1PL0 Copyright (c) Steve Scherf et al.
# Submitted via: audiograbber 1.83.01
#
DISCID=0512a022
DTITLE=Vladimir Visockii - Sbornoi
DYEAR=1900
DGENRE=Ballad
TTITLE0=Na Bratskih Mogillah
TTITLE1=Pesnia O Gospitale
TTITLE2=Zvezdyi
TTITLE3=Pesnia O Novom Vremeni
TTITLE4=Snaiper
TTITLE5=Pesnia O Liotchkika Iztrebitelia
TTITLE6=Vyisota
TTITLE7=Pesnq O Konkabejnika
TTITLE8=Santimentalnyi Bokser
TTITLE9=Parodii Plohoi Detectiv
TTITLE10=Pesenka Pro Jina
TTITLE11=Pro Dikovo Vepra
TTITLE12=O Hokeistah
TTITLE13=Moskva Odessa
TTITLE14=Pismo na Vyistavku
TTITLE15=Otvet na Pismo
TTITLE16=Iogi
TTITLE17=Ia Otnajdyi Gulial Po Stolice
TTITLE18=Skalolazka
TTITLE19=Moi Drug Uehal V Magadan
TTITLE20=Dereviannyie Kostiumyi
TTITLE21=Tatuirovka
TTITLE22=Belyi Vals
TTITLE23=O Pogibshim Druge
TTITLE24=Davno Smolkli Zalpyi Orudii
TTITLE25=Liubov V Kamennom Veke
TTITLE26=Maraton
TTITLE27=Stangist
TTITLE28=Nesostaqvshisia Roman
TTITLE29=Nevidimka
TTITLE30=Vleningrade Gorada
TTITLE31=Jil Byj Dobryi Durachina
TTITLE32=Pesenka Metatelia Molota
TTITLE33=O Sportista
EXTD=
EXTT0=
EXTT1=
EXTT2=
EXTT3=
EXTT4=
EXTT5=
EXTT6=
EXTT7=
EXTT8=
EXTT9=
EXTT10=
EXTT11=
EXTT12=
EXTT13=
EXTT14=
EXTT15=
EXTT16=
EXTT17=
EXTT18=
EXTT19=
EXTT20=
EXTT21=
EXTT22=
EXTT23=
EXTT24=
EXTT25=
EXTT26=
EXTT27=
EXTT28=
EXTT29=
EXTT30=
EXTT31=
EXTT32=
EXTT33=
PLAYORDER=
